<svg width="40" height="41" viewBox="0 0 40 41" fill="none" xmlns="http://www.w3.org/2000/svg">
<rect x="0.5" y="0.816772" width="39" height="39" rx="11.5" stroke="#EDEDED"/>
<path d="M29.1662 15.7334C29.1662 13.2021 27.1142 11.1501 24.5828 11.1501C22.0515 11.1501 19.9995 13.2021 19.9995 15.7334C19.9995 18.2647 22.0515 20.3168 24.5828 20.3168C27.1142 20.3168 29.1662 18.2647 29.1662 15.7334ZM25.0001 16.1501L25.0004 18.2364C25.0004 18.4665 24.8139 18.653 24.5838 18.653C24.3537 18.653 24.1671 18.4665 24.1671 18.2364L24.1668 16.1501H22.0792C21.8493 16.1501 21.6629 15.9635 21.6629 15.7334C21.6629 15.5033 21.8493 15.3168 22.0792 15.3168H24.1666L24.1662 13.2328C24.1662 13.0027 24.3528 12.8161 24.5828 12.8161C24.813 12.8161 24.9995 13.0027 24.9995 13.2328L24.9999 15.3168H27.08C27.3099 15.3168 27.4963 15.5033 27.4963 15.7334C27.4963 15.9635 27.3099 16.1501 27.08 16.1501H25.0001ZM24.5835 26.8013V21.1501C25.0138 21.15 25.4323 21.0998 25.8335 21.005V28.021C25.8335 28.5303 25.257 28.8258 24.8435 28.5283L20.0008 25.0442L15.1582 28.5283C14.7448 28.8258 14.1682 28.5303 14.1682 28.021V15.5244C14.1682 14.0286 15.3808 12.816 16.8765 12.816H20.0182C19.7709 13.202 19.5713 13.6215 19.4277 14.066H16.8765C16.0711 14.066 15.4182 14.719 15.4182 15.5244V26.8013L19.6358 23.7669C19.8539 23.61 20.1478 23.61 20.3659 23.7669L24.5835 26.8013Z" fill="#070422"/>
</svg>
