<svg width="31" height="30" viewBox="0 0 31 30" fill="none" xmlns="http://www.w3.org/2000/svg">
<path d="M0.900146 1.28482C0.900146 0.574701 1.47582 -0.000976562 2.18595 -0.000976562H3.14302C4.77251 -0.000976562 5.74816 1.09451 6.30607 2.11286C6.67794 2.79167 6.94697 3.579 7.15739 4.29179C7.21438 4.28732 7.27212 4.28502 7.33051 4.28502H28.7559C30.1792 4.28502 31.2069 5.64697 30.8167 7.01571L27.6832 18.0035C27.1057 20.0287 25.2552 21.4252 23.1494 21.4252H12.952C10.8287 21.4252 8.96742 20.0059 8.40549 17.9584L7.10171 13.2076L4.94397 5.92361L4.94047 5.91085C4.67354 4.93736 4.42301 4.02794 4.05075 3.34844C3.68923 2.68857 3.40106 2.57062 3.14302 2.57062H2.18595C1.47582 2.57062 0.900146 1.99494 0.900146 1.28482ZM9.597 12.5832L10.8854 17.2778C11.1408 18.2085 11.9868 18.8536 12.952 18.8536H23.1494C24.1066 18.8536 24.9477 18.2188 25.2103 17.2983L28.1879 6.85662H7.9043L9.57339 12.4915C9.58244 12.522 9.59029 12.5525 9.597 12.5832ZM15.4725 26.5722C15.4725 28.4659 13.9375 30.001 12.0437 30.001C10.1501 30.001 8.61494 28.4659 8.61494 26.5722C8.61494 24.6785 10.1501 23.1434 12.0437 23.1434C13.9375 23.1434 15.4725 24.6785 15.4725 26.5722ZM12.9009 26.5722C12.9009 26.0988 12.5171 25.715 12.0437 25.715C11.5703 25.715 11.1865 26.0988 11.1865 26.5722C11.1865 27.0455 11.5703 27.4294 12.0437 27.4294C12.5171 27.4294 12.9009 27.0455 12.9009 26.5722ZM27.4733 26.5722C27.4733 28.4659 25.9382 30.001 24.0445 30.001C22.1508 30.001 20.6157 28.4659 20.6157 26.5722C20.6157 24.6785 22.1508 23.1434 24.0445 23.1434C25.9382 23.1434 27.4733 24.6785 27.4733 26.5722ZM24.9017 26.5722C24.9017 26.0988 24.5179 25.715 24.0445 25.715C23.5712 25.715 23.1873 26.0988 23.1873 26.5722C23.1873 27.0455 23.5712 27.4294 24.0445 27.4294C24.5179 27.4294 24.9017 27.0455 24.9017 26.5722Z" fill="#070422"/>
</svg>
