<svg width="26" height="20" viewBox="0 0 26 20" fill="none" xmlns="http://www.w3.org/2000/svg">
<path d="M4.5625 0H21.4375C23.6038 0 25.374 1.69556 25.4936 3.83197L25.5 4.0625V15.9375C25.5 18.1037 23.8044 19.874 21.668 19.9936L21.4375 20H4.5625C2.39621 20 0.625938 18.3044 0.506425 16.168L0.5 15.9375V4.0625C0.5 1.89621 2.19556 0.125937 4.33198 0.00642478L4.5625 0ZM23.625 6.71625L13.4366 12.0796C13.2024 12.2029 12.9289 12.2205 12.6835 12.1325L12.5634 12.0796L2.375 6.7175V15.9375C2.375 17.0852 3.25889 18.0265 4.38309 18.1177L4.5625 18.125H21.4375C22.5853 18.125 23.5265 17.2411 23.6178 16.1169L23.625 15.9375V6.71625ZM21.4375 1.875H4.5625C3.41479 1.875 2.47351 2.75889 2.38225 3.88309L2.375 4.0625V4.59875L13 10.1906L23.625 4.5975V4.0625C23.625 2.91479 22.7411 1.97351 21.6169 1.88225L21.4375 1.875Z" fill="#959595"/>
</svg>
