<svg width="40" height="40" viewBox="0 0 40 40" fill="none" xmlns="http://www.w3.org/2000/svg">
<g opacity="0.6">
<path fill-rule="evenodd" clip-rule="evenodd" d="M17.7498 30V21.166H14.8369V17.485H17.7498V14.54C17.7498 11.497 19.6548 10 22.3391 10C23.6249 10 24.7307 10.097 25.0532 10.14V13.32H23.1907C21.7308 13.32 21.3906 14.023 21.3906 15.052V17.485H25.0304L24.3025 21.165H21.3906L21.449 30" fill="white"/>
</g>
<path d="M19.7812 0.5C30.4251 0.5 39.0635 9.22526 39.0635 20C39.0635 30.7747 30.4251 39.5 19.7812 39.5C9.13763 39.4997 0.5 30.7746 0.5 20C0.5 9.22542 9.13763 0.500255 19.7812 0.5Z" stroke="white"/>
</svg>
