<svg width="23" height="30" viewBox="0 0 23 30" fill="none" xmlns="http://www.w3.org/2000/svg">
<path d="M2.77622 29.7749C1.99273 30.3387 0.900146 29.7787 0.900146 28.8135V5.13232C0.900146 2.29781 3.19796 0 6.03247 0H17.8737C20.7082 0 23.006 2.29781 23.006 5.13232V28.8135C23.006 29.7787 21.9134 30.3387 21.13 29.7749L11.9531 23.1725L2.77622 29.7749ZM20.6373 5.13232C20.6373 3.60605 19.4 2.36876 17.8737 2.36876H6.03247C4.5062 2.36876 3.26891 3.60605 3.26891 5.13232V26.5024L11.2614 20.752C11.6747 20.4548 12.2316 20.4548 12.6447 20.752L20.6373 26.5024V5.13232Z" fill="#070422"/>
</svg>
