<svg width="41" height="40" viewBox="0 0 41 40" fill="none" xmlns="http://www.w3.org/2000/svg">
<rect x="0.0859375" width="40" height="40" rx="20" fill="#EDEDED"/>
<path d="M21.5859 24C22.0001 24 22.3359 24.3358 22.3359 24.75C22.3359 25.1642 22.0001 25.5 21.5859 25.5H18.5859C18.1717 25.5 17.8359 25.1642 17.8359 24.75C17.8359 24.3358 18.1717 24 18.5859 24H21.5859ZM24.5859 19C25.0001 19 25.3359 19.3358 25.3359 19.75C25.3359 20.1642 25.0001 20.5 24.5859 20.5H15.5859C15.1717 20.5 14.8359 20.1642 14.8359 19.75C14.8359 19.3358 15.1717 19 15.5859 19H24.5859ZM27.5859 14C28.0001 14 28.3359 14.3358 28.3359 14.75C28.3359 15.1642 28.0001 15.5 27.5859 15.5H12.5859C12.1717 15.5 11.8359 15.1642 11.8359 14.75C11.8359 14.3358 12.1717 14 12.5859 14H27.5859Z" fill="#959595"/>
</svg>
