<svg width="40" height="41" viewBox="0 0 40 41" fill="none" xmlns="http://www.w3.org/2000/svg">
<rect x="0.5" y="0.816772" width="39" height="39" rx="11.5" stroke="#EDEDED"/>
<path d="M20.0002 11.9818C24.6032 11.9818 28.3347 15.7133 28.3347 20.3164C28.3347 24.9195 24.6032 28.651 20.0002 28.651C15.3971 28.651 11.6655 24.9195 11.6655 20.3164C11.6655 15.7133 15.3971 11.9818 20.0002 11.9818ZM20.0002 13.2318C16.0874 13.2318 12.9155 16.4037 12.9155 20.3164C12.9155 24.2292 16.0874 27.401 20.0002 27.401C23.9129 27.401 27.0847 24.2292 27.0847 20.3164C27.0847 16.4037 23.9129 13.2318 20.0002 13.2318ZM19.9971 19.0656C20.3135 19.0654 20.5752 19.3004 20.6167 19.6054L20.6225 19.6902L20.6255 24.2749C20.6257 24.62 20.3461 24.9001 20.0009 24.9003C19.6845 24.9005 19.4228 24.6655 19.3812 24.3605L19.3755 24.2757L19.3725 19.691C19.3723 19.3459 19.6519 19.0659 19.9971 19.0656ZM20.0005 16.1508C20.4602 16.1508 20.8327 16.5234 20.8327 16.983C20.8327 17.4427 20.4602 17.8153 20.0005 17.8153C19.5409 17.8153 19.1683 17.4427 19.1683 16.983C19.1683 16.5234 19.5409 16.1508 20.0005 16.1508Z" fill="#070422"/>
</svg>
