<svg width="40" height="40" viewBox="0 0 40 40" fill="none" xmlns="http://www.w3.org/2000/svg">
<g opacity="0.6">
<path fill-rule="evenodd" clip-rule="evenodd" d="M15.685 9.066C16.8452 9.012 17.2151 9 20.1705 9C23.1259 9 23.4958 9.013 24.655 9.066C25.8142 9.119 26.6055 9.306 27.2978 9.577C28.0228 9.854 28.6806 10.287 29.2246 10.847C29.7785 11.396 30.2057 12.06 30.4787 12.794C30.7478 13.494 30.9317 14.294 30.9851 15.464C31.0385 16.639 31.0504 17.013 31.0504 20C31.0504 22.988 31.0376 23.362 30.9851 24.535C30.9327 25.705 30.7478 26.505 30.4787 27.205C30.2057 27.9391 29.7777 28.6042 29.2246 29.154C28.6806 29.714 28.0228 30.146 27.2978 30.422C26.6055 30.694 25.8142 30.88 24.657 30.934C23.4958 30.988 23.1259 31 20.1705 31C17.2151 31 16.8452 30.987 15.685 30.934C14.5277 30.881 13.7365 30.694 13.0441 30.422C12.318 30.146 11.6602 29.7133 11.1164 29.154C10.5629 28.6047 10.1345 27.9399 9.86123 27.206C9.59319 26.506 9.40922 25.706 9.35581 24.536C9.3024 23.361 9.29053 22.987 9.29053 20C9.29053 17.012 9.30339 16.638 9.35581 15.466C9.40823 14.294 9.59319 13.494 9.86123 12.794C10.1349 12.0601 10.5636 11.3953 11.1174 10.846C11.6604 10.2865 12.3176 9.85344 13.0431 9.577C13.7355 9.306 14.5267 9.12 15.684 9.066H15.685ZM24.567 11.046C23.4196 10.993 23.0754 10.982 20.1705 10.982C17.2655 10.982 16.9213 10.993 15.774 11.046C14.7127 11.095 14.137 11.274 13.7533 11.425C13.2459 11.625 12.8829 11.862 12.5021 12.247C12.1411 12.6021 11.8633 13.0343 11.6891 13.512C11.5397 13.9 11.3627 14.482 11.3142 15.555C11.2618 16.715 11.2509 17.063 11.2509 20C11.2509 22.937 11.2618 23.285 11.3142 24.445C11.3627 25.518 11.5397 26.1 11.6891 26.488C11.8631 26.965 12.1411 27.398 12.5021 27.753C12.8532 28.118 13.2815 28.399 13.7533 28.575C14.137 28.726 14.7127 28.905 15.774 28.954C16.9213 29.007 17.2645 29.018 20.1705 29.018C23.0764 29.018 23.4196 29.007 24.567 28.954C25.6282 28.905 26.2039 28.726 26.5877 28.575C27.0951 28.375 27.4581 28.138 27.8389 27.753C28.1999 27.398 28.4778 26.965 28.6519 26.488C28.8012 26.1 28.9783 25.518 29.0267 24.445C29.0792 23.285 29.09 22.937 29.09 20C29.09 17.063 29.0792 16.715 29.0267 15.555C28.9783 14.482 28.8012 13.9 28.6519 13.512C28.4541 12.999 28.2197 12.632 27.8389 12.247C27.4877 11.8821 27.0602 11.6012 26.5877 11.425C26.2039 11.274 25.6282 11.095 24.567 11.046ZM18.7808 23.391C19.5569 23.7176 20.4211 23.7617 21.2258 23.5157C22.0304 23.2697 22.7257 22.7489 23.1927 22.0422C23.6598 21.3356 23.8697 20.4869 23.7866 19.6411C23.7035 18.7953 23.3326 18.005 22.7372 17.405C22.3576 17.0215 21.8986 16.7278 21.3933 16.5451C20.888 16.3625 20.3489 16.2954 19.8149 16.3486C19.2809 16.4019 18.7651 16.5742 18.3049 16.8531C17.8446 17.1321 17.4512 17.5107 17.1531 17.9619C16.8549 18.413 16.6594 18.9253 16.5806 19.462C16.5018 19.9986 16.5417 20.5463 16.6973 21.0655C16.853 21.5847 17.1206 22.0626 17.4809 22.4647C17.8411 22.8668 18.2851 23.1832 18.7808 23.391ZM16.2161 16.002C16.7354 15.477 17.3519 15.0605 18.0304 14.7764C18.7089 14.4922 19.4361 14.346 20.1705 14.346C20.9049 14.346 21.6321 14.4922 22.3106 14.7764C22.9891 15.0605 23.6055 15.477 24.1248 16.002C24.6441 16.527 25.0561 17.1503 25.3371 17.8363C25.6181 18.5223 25.7628 19.2575 25.7628 20C25.7628 20.7425 25.6181 21.4777 25.3371 22.1637C25.0561 22.8497 24.6441 23.473 24.1248 23.998C23.0761 25.0583 21.6536 25.654 20.1705 25.654C18.6873 25.654 17.2649 25.0583 16.2161 23.998C15.1673 22.9377 14.5782 21.4995 14.5782 20C14.5782 18.5005 15.1673 17.0623 16.2161 16.002ZM27.0031 15.188C27.1318 15.0653 27.2348 14.9177 27.306 14.754C27.3773 14.5903 27.4153 14.4138 27.4179 14.2349C27.4205 14.0561 27.3876 13.8785 27.3211 13.7128C27.2545 13.5471 27.1558 13.3965 27.0307 13.27C26.9056 13.1436 26.7567 13.0438 26.5928 12.9765C26.4289 12.9093 26.2533 12.876 26.0764 12.8786C25.8995 12.8812 25.7249 12.9197 25.563 12.9917C25.4011 13.0637 25.2551 13.1679 25.1337 13.298C24.8976 13.551 24.7684 13.8871 24.7734 14.2349C24.7784 14.5827 24.9173 14.9149 25.1606 15.1608C25.4038 15.4068 25.7324 15.5472 26.0764 15.5523C26.4204 15.5574 26.7528 15.4267 27.0031 15.188Z" fill="white"/>
</g>
<path d="M20.1704 0.5C30.8142 0.5 39.4526 9.22526 39.4526 20C39.4526 30.7747 30.8142 39.5 20.1704 39.5C9.52679 39.4997 0.88916 30.7746 0.88916 20C0.88916 9.22542 9.52679 0.500255 20.1704 0.5Z" stroke="white"/>
</svg>
