<svg width="40" height="41" viewBox="0 0 40 41" fill="none" xmlns="http://www.w3.org/2000/svg">
<rect x="0.5" y="0.816772" width="39" height="39" rx="11.5" stroke="#EDEDED"/>
<path d="M20.0001 11.7195C24.6024 11.7195 28.3334 15.4504 28.3334 20.0528C28.3334 24.6551 24.6024 28.3861 20.0001 28.3861C15.3977 28.3861 11.6667 24.6551 11.6667 20.0528C11.6667 15.4504 15.3977 11.7195 20.0001 11.7195ZM20.0001 12.9695C16.0881 12.9695 12.9167 16.1408 12.9167 20.0528C12.9167 23.9648 16.0881 27.1361 20.0001 27.1361C23.9121 27.1361 27.0834 23.9648 27.0834 20.0528C27.0834 16.1408 23.9121 12.9695 20.0001 12.9695ZM20.0001 15.8861C20.3452 15.8861 20.6251 16.166 20.6251 16.5111V19.4278H23.5417C23.8869 19.4278 24.1667 19.7076 24.1667 20.0528C24.1667 20.398 23.8869 20.6778 23.5417 20.6778H20.6251V23.5945C20.6251 23.9396 20.3452 24.2195 20.0001 24.2195C19.6549 24.2195 19.3751 23.9396 19.3751 23.5945V20.6778H16.4584C16.1132 20.6778 15.8334 20.398 15.8334 20.0528C15.8334 19.7076 16.1132 19.4278 16.4584 19.4278H19.3751V16.5111C19.3751 16.166 19.6549 15.8861 20.0001 15.8861Z" fill="#070422"/>
</svg>
