<svg width="25" height="24" viewBox="0 0 25 24" fill="none" xmlns="http://www.w3.org/2000/svg">
<path d="M10.9141 2.75C14.9182 2.75 18.1641 5.99594 18.1641 10C18.1641 11.7319 17.5568 13.3219 16.5436 14.5688L21.4444 19.4697C21.7373 19.7626 21.7373 20.2374 21.4444 20.5303C21.1782 20.7966 20.7615 20.8208 20.4679 20.6029L20.3838 20.5303L15.4829 15.6295C14.236 16.6427 12.646 17.25 10.9141 17.25C6.91 17.25 3.66406 14.0041 3.66406 10C3.66406 5.99594 6.91 2.75 10.9141 2.75ZM10.9141 4.25C7.73842 4.25 5.16406 6.82436 5.16406 10C5.16406 13.1756 7.73842 15.75 10.9141 15.75C14.0897 15.75 16.6641 13.1756 16.6641 10C16.6641 6.82436 14.0897 4.25 10.9141 4.25Z" fill="#959595"/>
</svg>
