<svg width="41" height="40" viewBox="0 0 41 40" fill="none" xmlns="http://www.w3.org/2000/svg">
<g opacity="0.6">
<path d="M30.9456 14L28.7202 14.375L30.2038 12.5L27.6074 13.25C24.2693 9.50002 19.0766 13.625 20.5602 17C14.6257 17 11.6584 12.5 11.6584 12.5C11.6584 12.5 9.43299 15.875 13.1421 18.5L10.9166 17.75C10.9166 20 12.4002 21.5 14.9966 22.25H12.4002C13.8839 25.25 16.4802 25.25 16.4802 25.25C16.4802 25.25 14.2548 27.125 10.1748 27.125C22.4147 33.125 29.8329 21.875 28.7202 15.875L30.9456 14Z" fill="white"/>
</g>
<path d="M20.5596 0.5C31.2034 0.5 39.8418 9.22526 39.8418 20C39.8418 30.7747 31.2034 39.5 20.5596 39.5C9.91595 39.4997 1.27832 30.7746 1.27832 20C1.27832 9.22542 9.91595 0.500255 20.5596 0.5Z" stroke="white"/>
</svg>
