<svg width="97" height="36" viewBox="0 0 97 36" fill="none" xmlns="http://www.w3.org/2000/svg">
<path d="M0.330078 22L7.81808 5.19995H11.6581L19.1701 22H15.0901L8.94608 7.16795H10.4821L4.31408 22H0.330078ZM4.07408 18.4L5.10608 15.448H13.7461L14.8021 18.4H4.07408Z" fill="#070422"/>
<path d="M24.2662 19.36L24.3622 14.8L30.3862 9.08802H34.8502L29.0662 14.968L27.1222 16.552L24.2662 19.36ZM21.1702 22V4.19202H24.9142V22H21.1702ZM30.7942 22L26.4262 16.576L28.7782 13.672L35.3302 22H30.7942Z" fill="#070422"/>
<path d="M37.3301 22V4.19202H41.0741V22H37.3301Z" fill="#070422"/>
<path d="M57.0742 15C57.0742 18.866 53.9402 22 50.0742 22C46.2082 22 43.0742 18.866 43.0742 15C43.0742 11.134 46.2082 8 50.0742 8C53.9402 8 57.0742 11.134 57.0742 15ZM45.7616 15C45.7616 17.3818 47.6924 19.3126 50.0742 19.3126C52.456 19.3126 54.3868 17.3818 54.3868 15C54.3868 12.6182 52.456 10.6874 50.0742 10.6874C47.6924 10.6874 45.7616 12.6182 45.7616 15Z" fill="#070422"/>
<circle cx="50.0742" cy="15" r="3" fill="#070422"/>
<path d="M73.0742 15C73.0742 18.866 69.9402 22 66.0742 22C62.2082 22 59.0742 18.866 59.0742 15C59.0742 11.134 62.2082 8 66.0742 8C69.9402 8 73.0742 11.134 73.0742 15ZM61.7616 15C61.7616 17.3818 63.6924 19.3126 66.0742 19.3126C68.456 19.3126 70.3868 17.3818 70.3868 15C70.3868 12.6182 68.456 10.6874 66.0742 10.6874C63.6924 10.6874 61.7616 12.6182 61.7616 15Z" fill="#070422"/>
<circle cx="66.3301" cy="15" r="3" fill="#070422"/>
<path d="M66.0742 8C66.0742 6.94943 65.8673 5.90914 65.4653 4.93853C65.0632 3.96793 64.4739 3.08601 63.7311 2.34315C62.9882 1.60028 62.1063 1.011 61.1357 0.608964C60.1651 0.206926 59.1248 -4.59221e-08 58.0742 0C57.0236 4.59221e-08 55.9834 0.206926 55.0128 0.608964C54.0421 1.011 53.1602 1.60028 52.4174 2.34315C51.6745 3.08601 51.0852 3.96793 50.6832 4.93853C50.2811 5.90914 50.0742 6.94943 50.0742 8L52.7523 8C52.7523 7.30112 52.89 6.60908 53.1574 5.96339C53.4249 5.31771 53.8169 4.73103 54.3111 4.23684C54.8052 3.74266 55.3919 3.35065 56.0376 3.0832C56.6833 2.81574 57.3753 2.67809 58.0742 2.67809C58.7731 2.67809 59.4651 2.81574 60.1108 3.08319C60.7565 3.35065 61.3432 3.74266 61.8374 4.23684C62.3316 4.73103 62.7236 5.31771 62.991 5.96339C63.2585 6.60908 63.3961 7.30112 63.3961 8H66.0742Z" fill="#070422"/>
<path d="M91.6102 8.896C92.6342 8.896 93.5382 9.104 94.3222 9.52C95.1222 9.92 95.7462 10.544 96.1942 11.392C96.6582 12.224 96.8902 13.296 96.8902 14.608V22H93.1462V15.184C93.1462 14.144 92.9302 13.376 92.4982 12.88C92.0662 12.384 91.4582 12.136 90.6742 12.136C90.1302 12.136 89.6422 12.264 89.2102 12.52C88.7782 12.76 88.4422 13.128 88.2022 13.624C87.9622 14.12 87.8422 14.752 87.8422 15.52V22H84.0982V15.184C84.0982 14.144 83.8822 13.376 83.4502 12.88C83.0342 12.384 82.4342 12.136 81.6502 12.136C81.1062 12.136 80.6182 12.264 80.1862 12.52C79.7542 12.76 79.4182 13.128 79.1782 13.624C78.9382 14.12 78.8182 14.752 78.8182 15.52V22H75.0742V9.088H78.6502V12.616L77.9782 11.584C78.4262 10.704 79.0582 10.04 79.8742 9.592C80.7062 9.128 81.6502 8.896 82.7062 8.896C83.8902 8.896 84.9222 9.2 85.8022 9.808C86.6982 10.4 87.2902 11.312 87.5782 12.544L86.2582 12.184C86.6902 11.176 87.3782 10.376 88.3222 9.784C89.2822 9.192 90.3782 8.896 91.6102 8.896Z" fill="#070422"/>
<path d="M13.8078 36C13.0611 36 12.3456 35.8987 11.6611 35.6961C10.9767 35.4843 10.4256 35.2127 10.0078 34.8812L10.7411 33.1961C11.1411 33.4908 11.6123 33.7348 12.1545 33.9282C12.7056 34.1123 13.2611 34.2044 13.8211 34.2044C14.2478 34.2044 14.59 34.163 14.8478 34.0801C15.1145 33.988 15.31 33.8637 15.4345 33.7072C15.5589 33.5506 15.6211 33.3711 15.6211 33.1685C15.6211 32.9107 15.5234 32.7081 15.3278 32.5608C15.1323 32.4042 14.8745 32.2799 14.5545 32.1878C14.2345 32.0866 13.8789 31.9945 13.4878 31.9116C13.1056 31.8195 12.7189 31.709 12.3278 31.5801C11.9456 31.4512 11.5945 31.2855 11.2745 31.0829C10.9545 30.8803 10.6923 30.6133 10.4878 30.2818C10.2923 29.9503 10.1945 29.5267 10.1945 29.011C10.1945 28.4586 10.3367 27.9567 10.6211 27.5055C10.9145 27.0451 11.35 26.6814 11.9278 26.4144C12.5145 26.1381 13.2478 26 14.1278 26C14.7145 26 15.2923 26.0737 15.8611 26.221C16.43 26.3591 16.9323 26.5709 17.3678 26.8564L16.7011 28.5552C16.2656 28.2974 15.83 28.1087 15.3945 27.989C14.9589 27.86 14.5323 27.7956 14.1145 27.7956C13.6967 27.7956 13.3545 27.8462 13.0878 27.9475C12.8211 28.0488 12.63 28.1823 12.5145 28.3481C12.3989 28.5046 12.3411 28.6888 12.3411 28.9006C12.3411 29.1492 12.4389 29.3517 12.6345 29.5083C12.83 29.6556 13.0878 29.7753 13.4078 29.8674C13.7278 29.9595 14.0789 30.0516 14.4611 30.1436C14.8523 30.2357 15.2389 30.3416 15.6211 30.4613C16.0123 30.581 16.3678 30.7422 16.6878 30.9448C17.0078 31.1473 17.2656 31.4144 17.4611 31.7459C17.6656 32.0773 17.7678 32.4963 17.7678 33.0028C17.7678 33.546 17.6211 34.0433 17.3278 34.4945C17.0345 34.9457 16.5945 35.3094 16.0078 35.5856C15.43 35.8619 14.6967 36 13.8078 36Z" fill="#070422"/>
<path d="M38.1678 26H40.3278V36H38.1678V26ZM33.9278 36H31.7678V26H33.9278V36ZM38.3278 31.9H33.7678V29.9429H38.3278V31.9Z" fill="#070422"/>
<path d="M59.4479 36C58.7101 36 58.0257 35.8757 57.3945 35.6271C56.7723 35.3785 56.2301 35.0285 55.7679 34.5773C55.3145 34.1262 54.959 33.5967 54.7012 32.989C54.4523 32.3812 54.3279 31.7182 54.3279 31C54.3279 30.2818 54.4523 29.6188 54.7012 29.011C54.959 28.4033 55.319 27.8738 55.7812 27.4227C56.2434 26.9715 56.7857 26.6215 57.4079 26.3729C58.0301 26.1243 58.7057 26 59.4345 26C60.1723 26 60.8479 26.1243 61.4612 26.3729C62.0834 26.6215 62.6212 26.9715 63.0745 27.4227C63.5368 27.8738 63.8968 28.4033 64.1545 29.011C64.4123 29.6096 64.5412 30.2726 64.5412 31C64.5412 31.7182 64.4123 32.3858 64.1545 33.0028C63.8968 33.6105 63.5368 34.14 63.0745 34.5912C62.6212 35.0331 62.0834 35.3785 61.4612 35.6271C60.8479 35.8757 60.1768 36 59.4479 36ZM59.4345 34.0939C59.8523 34.0939 60.2345 34.0203 60.5812 33.8729C60.9368 33.7256 61.2479 33.5138 61.5145 33.2376C61.7812 32.9613 61.9857 32.6344 62.1279 32.2569C62.279 31.8794 62.3545 31.4604 62.3545 31C62.3545 30.5396 62.279 30.1206 62.1279 29.7431C61.9857 29.3656 61.7812 29.0387 61.5145 28.7624C61.2568 28.4862 60.9501 28.2744 60.5945 28.1271C60.239 27.9797 59.8523 27.9061 59.4345 27.9061C59.0168 27.9061 58.6301 27.9797 58.2745 28.1271C57.9279 28.2744 57.6212 28.4862 57.3545 28.7624C57.0879 29.0387 56.879 29.3656 56.7279 29.7431C56.5857 30.1206 56.5145 30.5396 56.5145 31C56.5145 31.4512 56.5857 31.8702 56.7279 32.2569C56.879 32.6344 57.0834 32.9613 57.3412 33.2376C57.6079 33.5138 57.919 33.7256 58.2745 33.8729C58.6301 34.0203 59.0168 34.0939 59.4345 34.0939Z" fill="#070422"/>
<path d="M78.5413 36V26H82.8698C83.7651 26 84.5365 26.1476 85.1841 26.4429C85.8317 26.7286 86.3317 27.1429 86.6841 27.6857C87.0365 28.2286 87.2127 28.8762 87.2127 29.6286C87.2127 30.3714 87.0365 31.0143 86.6841 31.5571C86.3317 32.1 85.8317 32.519 85.1841 32.8143C84.5365 33.1 83.7651 33.2429 82.8698 33.2429H79.827L80.8555 32.2V36H78.5413ZM80.8555 32.4571L79.827 31.3571H82.7413C83.4555 31.3571 83.9889 31.2048 84.3413 30.9C84.6936 30.5952 84.8698 30.1714 84.8698 29.6286C84.8698 29.0762 84.6936 28.6476 84.3413 28.3429C83.9889 28.0381 83.4555 27.8857 82.7413 27.8857H79.827L80.8555 26.7857V32.4571Z" fill="#070422"/>
</svg>
